<svg width="128" height="128" viewBox="0 0 128 128" fill="none" xmlns="http://www.w3.org/2000/svg">
<g clip-path="url(#clip0)">
<path d="M102.146 128.001H64.0033C50.8011 128.003 37.9216 123.921 27.1301 116.316C16.3386 108.711 8.16336 97.9545 3.72494 85.5213C-0.71349 73.088 -1.19785 59.5865 2.33822 46.8671C5.8743 34.1478 13.2577 22.8334 23.4765 14.4746L29.5727 23.271L35.6865 32.0675L41.765 40.8639C37.1455 45.2997 33.9585 51.0159 32.6139 57.2774C31.2694 63.539 31.8287 70.0596 34.22 76.0008C36.6113 81.9419 40.7253 87.0318 46.0328 90.6162C51.3403 94.2005 57.5988 96.1152 64.0033 96.1142L79.9695 96.0086L87.3412 106.67H64.0033C56.2889 106.669 48.7192 104.576 42.0994 100.615C35.4796 96.6544 30.0574 90.9732 26.4096 84.176C22.7617 77.3788 21.0248 69.72 21.3835 62.0142C21.7422 54.3085 24.1832 46.8442 28.4467 40.4152L22.0075 31.1174C15.8521 38.9921 12.0327 48.4375 10.9845 58.3772C9.93628 68.3169 11.7014 78.3511 16.0788 87.3365C20.4561 96.3218 27.2696 103.897 35.7428 109.199C44.216 114.5 54.0081 117.315 64.0033 117.322H94.7921L102.146 128.001Z" fill="#276FFA"/>
<path d="M128 127.549V127.998H115.306L86.699 86.7159C91.1921 82.2267 94.2528 76.5057 95.4938 70.2768C96.7348 64.0478 96.1004 57.5907 93.6708 51.7224C91.2413 45.854 87.1257 40.838 81.8448 37.309C76.5639 33.78 70.3549 31.8964 64.0033 31.8966C63.2555 31.8966 62.5078 31.8966 61.7689 31.9758C57.9449 32.2363 54.1991 33.1839 50.7113 34.7731L44.6239 25.9766C47.9206 24.289 51.4256 23.0438 55.0481 22.2733V22.2733C63.2863 20.5079 71.8628 21.2204 79.6966 24.3213C87.5305 27.4221 94.2711 32.7725 99.0689 39.6979C103.867 46.6234 106.507 54.8141 106.657 63.2377C106.807 71.6613 104.46 79.9407 99.9118 87.0326L106.131 95.9962L106.386 96.3656L106.668 95.9962C113.966 86.2532 117.713 74.3074 117.286 62.1417C116.859 49.976 112.285 38.3221 104.322 29.1144C96.3585 19.9067 85.4859 13.6991 73.5085 11.5219C61.5311 9.34465 49.1693 11.3288 38.475 17.145L32.3788 8.34862C35.5251 6.5505 38.8217 5.02886 42.2312 3.80086C54.5734 -0.652724 67.9861 -1.20671 80.6536 2.21386C93.3211 5.63444 104.632 12.8644 113.054 22.9251C121.477 32.9858 126.605 45.3913 127.744 58.4624C128.883 71.5336 125.978 84.6391 119.423 96.005C117.483 99.3714 115.236 102.552 112.711 105.505L128 127.549Z" fill="#276FFA"/>
<path d="M64.0035 85.4089C75.8239 85.4089 85.4061 75.827 85.4061 64.0072C85.4061 52.1873 75.8239 42.6055 64.0035 42.6055C52.1832 42.6055 42.601 52.1873 42.601 64.0072C42.601 75.827 52.1832 85.4089 64.0035 85.4089Z" fill="#276FFA"/>
</g>
<defs>
<clipPath id="clip0">
<rect width="128" height="128" fill="white"/>
</clipPath>
</defs>
</svg>
